<svg width="116" height="20" fill="none" xmlns="http://www.w3.org/2000/svg">
  <path d="m10 0 2.645 6.36 6.866.55-5.231 4.48 1.598 6.7L10 14.5l-5.878 3.59 1.598-6.7L.49 6.91l6.865-.55L10 0Zm24 0 2.645 6.36 6.866.55-5.231 4.48 1.598 6.7L34 14.5l-5.878 3.59 1.598-6.7-5.23-4.48 6.865-.55L34 0Zm24 0 2.645 6.36 6.866.55-5.231 4.48 1.598 6.7L58 14.5l-5.878 3.59 1.598-6.7-5.23-4.48 6.865-.55L58 0Zm24 0 2.645 6.36 6.866.55-5.231 4.48 1.598 6.7L82 14.5l-5.878 3.59 1.598-6.7-5.23-4.48 6.865-.55L82 0Zm24 0 2.645 6.36 6.866.55-5.231 4.48 1.598 6.7L106 14.5l-5.878 3.59 1.598-6.7-5.23-4.48 6.865-.55L106 0Z" fill="#354D64"/>
</svg>
