<svg width="117" height="20" fill="none" xmlns="http://www.w3.org/2000/svg">
  <path d="m10.333 0 2.645 6.36 6.866.55-5.23 4.48 1.597 6.7-5.878-3.59-5.877 3.59 1.598-6.7L.823 6.91l6.865-.55L10.333 0Zm24 0 2.645 6.36 6.866.55-5.23 4.48 1.597 6.7-5.878-3.59-5.877 3.59 1.598-6.7-5.231-4.48 6.865-.55L34.333 0Zm24 0 2.645 6.36 6.866.55-5.23 4.48 1.597 6.7-5.878-3.59-5.877 3.59 1.598-6.7-5.231-4.48 6.865-.55L58.333 0Zm24 0 2.645 6.36 6.866.55-5.23 4.48 1.597 6.7-5.878-3.59-5.877 3.59 1.598-6.7-5.231-4.48 6.865-.55L82.333 0Z" fill="#354D64"/>
  <path d="m106.333 0 2.645 6.36 6.866.55-5.231 4.48 1.598 6.7-5.878-3.59-5.877 3.59 1.598-6.7-5.231-4.48 6.865-.55L106.333 0Z" fill="#354D64" fill-opacity=".5"/>
</svg>
