<svg width="117" height="20" viewBox="0 0 117 20" fill="none" xmlns="http://www.w3.org/2000/svg">
  <path
    d="M10.3334 0L12.9784 6.35942L19.8439 6.90983L14.6131 11.3906L16.2112 18.0902L10.3334 14.5L4.45552 18.0902L6.05362 11.3906L0.822809 6.90983L7.68834 6.35942L10.3334 0Z"
    fill="#354D64" />
  <path
    d="M34.3334 0L36.9784 6.35942L43.8439 6.90983L38.6131 11.3906L40.2112 18.0902L34.3334 14.5L28.4555 18.0902L30.0536 11.3906L24.8228 6.90983L31.6883 6.35942L34.3334 0Z"
    fill="#354D64" />
  <path
    d="M58.3334 0L60.9784 6.35942L67.8439 6.90983L62.6131 11.3906L64.2112 18.0902L58.3334 14.5L52.4555 18.0902L54.0536 11.3906L48.8228 6.90983L55.6883 6.35942L58.3334 0Z"
    fill="#354D64" />
  <path
    d="M82.3334 0L84.9784 6.35942L91.8439 6.90983L86.6131 11.3906L88.2112 18.0902L82.3334 14.5L76.4555 18.0902L78.0536 11.3906L72.8228 6.90983L79.6883 6.35942L82.3334 0Z"
    fill="#354D64" />
  <path
    d="M106.333 0L108.978 6.35942L115.844 6.90983L110.613 11.3906L112.211 18.0902L106.333 14.5L100.456 18.0902L102.054 11.3906L96.8228 6.90983L103.688 6.35942L106.333 0Z"
    fill="#354D64" fill-opacity="0.5" />
</svg>