<svg width="86" height="86" fill="none" xmlns="http://www.w3.org/2000/svg">
  <path d="M16.538 0c-3.643 0-6.615 2.972-6.615 6.615v62.846c0 3.644 2.972 6.616 6.615 6.616h17.573c-2.313-1.99-4.342-3.967-5.996-6.615H16.54V6.614h49.615V26.15c2.313 1.318 4.625 2.662 6.615 4.652V6.615C72.77 2.972 69.797 0 66.154 0H16.539Zm9.924 16.538v6.616H56.23v-6.616H26.46Zm26.461 9.924a26.385 26.385 0 0 0-12.817 3.307H26.46v6.616h5.892c-3.643 4.535-5.892 10.297-5.892 16.538 0 14.575 11.888 26.462 26.462 26.462 5.246 0 10.143-1.59 14.264-4.238L78.041 86l4.651-4.651-10.44-10.44c4.393-4.73 7.133-11.048 7.133-17.986 0-14.574-11.887-26.462-26.462-26.462Zm0 6.615A19.802 19.802 0 0 1 72.77 52.923 19.802 19.802 0 0 1 52.923 72.77a19.802 19.802 0 0 1-19.846-19.846 19.802 19.802 0 0 1 19.846-19.846ZM43 39.692c-3.308 2.313-5.646 5.957-6.305 9.923h26.151v-9.923H43Zm-6.305 16.539c.659 3.966 3.333 7.61 6.305 9.923h19.846V56.23H36.695Z" fill="#354D64"/>
</svg>
