<svg width="86" height="86" fill="none" xmlns="http://www.w3.org/2000/svg">
  <g clip-path="url('#clip0_2001_573')">
    <path d="M28.115 0C20.828 0 15.234 2.468 11.68 6.099c-3.553 3.63-5.065 8.269-5.065 12.403 0 6.228 3.295 11.022 7.546 13.851 4.251 2.83 9.368 4.032 13.954 4.032 2.675 0 5.53-.427 8.27-1.344 4.38 3.32 9.962 4.651 14.884 4.651 4.613 0 9.717-1.214 13.955-4.134 4.237-2.92 7.545-7.882 7.545-14.161 0-10.053-8.967-18.09-21.5-18.09-3.14 0-5.995.518-8.476 1.344C39.046 1.757 33.981 0 28.115 0Zm0 6.615c4.6 0 8.076 1.176 10.544 2.998a3.305 3.305 0 0 0 2.377 2.17C42.366 13.594 43 15.777 43 18.09c0 4.109-1.796 6.719-4.651 8.683-.711.49-1.55.969-2.378 1.343a3.497 3.497 0 0 0-.62.207c-2.352.956-4.923 1.447-7.236 1.447-3.385 0-7.377-.995-10.233-2.894-2.855-1.9-4.651-4.328-4.651-8.373 0-2.429.943-5.44 3.204-7.752 2.261-2.313 5.84-4.135 11.68-4.135ZM51.27 9.923c9.936 0 14.885 5.168 14.885 11.474 0 4.108-1.796 6.718-4.652 8.682-2.855 1.964-6.873 2.998-10.233 2.998-2.584 0-5.452-.633-7.959-1.757 3.618-2.985 6.305-7.585 6.305-13.231 0-2.817-.672-5.491-1.964-7.856 1.112-.18 2.287-.31 3.618-.31Zm29.77 16.539a4.963 4.963 0 0 0-4.962 4.961 4.963 4.963 0 1 0 4.962-4.962ZM4.962 29.768a4.963 4.963 0 1 0 4.962 4.962 4.963 4.963 0 0 0-4.962-4.962Zm13.437 10.233c-2.507 0-5.362 1.06-7.132 4.032-1.77 2.959-2.416 7.041-1.034 10.336-.052.246-.465-.284-.62 1.24-.155 1.474.581 3.567 1.344 4.549.336.413.865.775 1.24.93 0 0 .4 2.597 2.584 5.065.504 1.964-1.55 2.997-1.55 2.997C6.357 70.391.103 73.971.103 77.834v2.998c0 4.199 10.363 5.065 19.743 5.065 9.393 0 19.743-2.597 19.743-5.169v-2.894c0-3.863-6.267-7.442-13.127-8.683 0 0-2.585-.555-1.344-2.997 1.524-1.912 2.506-4.148 2.584-4.858 0 0 2.351-1.745 2.48-4.342.156-2.597-.516-2.687-.516-2.687.982-2.83 1.176-13.05-6.099-11.784-.517-1.395-2.661-2.48-5.168-2.48Zm46.308 0c-2.507 0-5.362 1.06-7.132 4.032-1.77 2.959-2.417 7.041-1.034 10.336-.052.246-.465-.284-.62 1.24-.155 1.474.581 3.567 1.343 4.549.336.413.866.775 1.24.93 0 0 .401 2.597 2.585 5.065.504 1.964-1.55 2.997-1.55 2.997-6.874 1.24-13.128 4.82-13.128 8.683v2.998c0 4.199 10.362 5.065 19.743 5.065 9.393 0 19.743-2.597 19.743-5.169v-2.894c0-3.863-6.267-7.442-13.128-8.683 0 0-2.584-.555-1.344-2.997 1.525-1.912 2.507-4.148 2.585-4.858 0 0 2.351-1.745 2.48-4.342.155-2.597-.516-2.687-.516-2.687.981-2.83 1.175-13.05-6.099-11.784-.517-1.395-2.662-2.48-5.168-2.48ZM82.692 43a3.314 3.314 0 0 0-3.307 3.308 3.314 3.314 0 0 0 3.307 3.307A3.314 3.314 0 0 0 86 46.308 3.314 3.314 0 0 0 82.692 43ZM3.308 46.308A3.314 3.314 0 0 0 0 49.615a3.314 3.314 0 0 0 3.308 3.308 3.314 3.314 0 0 0 3.307-3.308 3.314 3.314 0 0 0-3.307-3.307Z" fill="#354D64"/>
  </g>
  <defs>
    <clipPath id="clip0_2001_573">
      <path fill="#fff" d="M0 0h86v86H0z"/>
    </clipPath>
  </defs>
</svg>
