<svg width="86" height="86" fill="none" xmlns="http://www.w3.org/2000/svg">
  <g clip-path="url('#clip0_2001_582')">
    <path d="M43 0C19.252 0 0 19.252 0 43s19.252 43 43 43 43-19.252 43-43c0-11.551-4.574-22.043-11.99-29.77l-.62-.62a43.401 43.401 0 0 0-9.407-7.132c-.168-.103-.336-.22-.517-.31-.336-.18-.684-.336-1.033-.517a50.594 50.594 0 0 0-2.688-1.24 43.23 43.23 0 0 0-3.618-1.344c-.103-.038-.206-.077-.31-.103-2.661-.827-5.413-1.46-8.269-1.757h-.103A45.926 45.926 0 0 0 43 0Zm0 6.615v16.539c-10.944 0-19.846 8.902-19.846 19.846S32.056 62.846 43 62.846c4.25 0 8.14-1.434 11.37-3.721l11.887 11.887C59.952 76.258 51.825 79.385 43 79.385 22.934 79.385 6.615 63.065 6.615 43 6.615 22.934 22.935 6.615 43 6.615ZM69.255 17.78c4.147 4.315 7.158 9.665 8.786 15.608-1.137.517-1.964 1.654-1.964 2.998a3.32 3.32 0 0 0 3.1 3.307c.104 1.086.208 2.197.208 3.308 0 1.111-.104 2.222-.207 3.308a3.32 3.32 0 0 0-3.101 3.307c0 1.344.827 2.481 1.964 2.998-1.396 5.078-3.747 9.703-7.029 13.644l-1.964-1.964c.233-.452.413-.904.413-1.447a3.314 3.314 0 0 0-3.307-3.307c-.543 0-.995.18-1.447.413l-2.274-2.274c.232-.452.413-.905.413-1.447 0-1.641-1.227-2.946-2.79-3.205 1.757-2.958 2.79-6.344 2.79-10.026 0-3.682-1.033-7.068-2.79-10.026 1.563-.259 2.79-1.564 2.79-3.205 0-1.64-1.227-2.946-2.79-3.204l2.894-2.791c.297 1.512 1.602 2.688 3.204 2.688a3.314 3.314 0 0 0 3.308-3.308c0-1.564-1.138-2.752-2.585-3.101l2.378-2.274Zm3.514 8.683a3.314 3.314 0 0 0-3.308 3.307 3.314 3.314 0 0 0 3.308 3.308 3.314 3.314 0 0 0 3.308-3.308 3.314 3.314 0 0 0-3.308-3.307ZM43 29.768c3.747 0 7.106 1.525 9.51 4.032a13.213 13.213 0 0 1 3.72 9.2c0 7.313-5.917 13.23-13.23 13.23-7.313 0-13.23-5.917-13.23-13.23 0-7.313 5.917-13.23 13.23-13.23Zm23.154 3.308a3.314 3.314 0 0 0-3.308 3.308 3.314 3.314 0 0 0 3.308 3.307 3.314 3.314 0 0 0 3.308-3.307 3.314 3.314 0 0 0-3.308-3.308Zm6.615 6.615A3.314 3.314 0 0 0 69.461 43a3.314 3.314 0 0 0 3.308 3.308A3.314 3.314 0 0 0 76.077 43a3.314 3.314 0 0 0-3.308-3.308Zm-6.615 6.616a3.314 3.314 0 0 0-3.308 3.307 3.314 3.314 0 0 0 3.308 3.308 3.314 3.314 0 0 0 3.308-3.308 3.314 3.314 0 0 0-3.308-3.307Zm6.615 6.615a3.314 3.314 0 0 0-3.308 3.308 3.314 3.314 0 0 0 3.308 3.307 3.314 3.314 0 0 0 3.308-3.307 3.314 3.314 0 0 0-3.308-3.308Z" fill="#354D64"/>
  </g>
  <defs>
    <clipPath id="clip0_2001_582">
      <path fill="#fff" d="M0 0h86v86H0z"/>
    </clipPath>
  </defs>
</svg>
