<svg width="86" height="86" fill="none" xmlns="http://www.w3.org/2000/svg">
  <path d="m83.648 66.593-33.257-57.6c-4.07-7.042-10.712-7.042-14.782 0l-33.257 57.6c-4.07 7.042-.737 12.792 7.39 12.792h66.516c8.127 0 11.448-5.75 7.39-12.792ZM38.426 25.337C39.628 24.045 41.14 23.4 43 23.4c1.86 0 3.372.633 4.574 1.913 1.176 1.266 1.783 2.868 1.783 4.793 0 1.641-2.48 13.787-3.308 22.611h-5.982c-.724-8.825-3.424-20.97-3.424-22.61 0-1.9.607-3.49 1.783-4.769Zm9.057 41.993c-1.253 1.214-2.752 1.834-4.483 1.834-1.731 0-3.23-.62-4.483-1.834-1.254-1.228-1.874-2.7-1.874-4.445 0-1.731.62-3.23 1.873-4.484 1.254-1.253 2.753-1.873 4.484-1.873 1.731 0 3.23.62 4.483 1.873 1.254 1.254 1.874 2.752 1.874 4.484 0 1.744-.62 3.217-1.873 4.445Z" fill="#354D64"/>
</svg>
