<svg width="86" height="86" fill="none" xmlns="http://www.w3.org/2000/svg">
  <g clip-path="url('#clip0_2001_580')">
    <path d="M43.31 6.615C19.161 6.615 0 26.1 0 49.615c0 7.326 1.848 14.355 5.168 20.363l.104.31.206.414a4.974 4.974 0 0 0 6.099 2.48h.103c.362 0 .724-.103 1.034-.31l6.822-3.824c.22-.064.44-.168.62-.31a1.87 1.87 0 0 0 .207-2.274L19.226 64.5a1.919 1.919 0 0 0-1.137-.917 1.89 1.89 0 0 0-1.447.193l-2.688 1.55c-2.545-4.508-4.03-9.922-4.03-15.71a32.98 32.98 0 0 1 3.1-13.955l2.377 1.344c.117.116.259.232.414.31a1.866 1.866 0 0 0 2.17-.93l1.138-1.964a1.87 1.87 0 0 0-.62-2.481l-2.481-1.447c5.413-7.61 13.993-12.83 24.084-13.748v4.445c0 1.034.827 1.86 1.86 1.86h2.378c1.033 0 1.86-.826 1.86-1.86v-4.445c9.807.892 18.49 6.099 23.981 13.748l-2.687 1.55h-.104a1.874 1.874 0 0 0-.8 1.189c-.091.478.012.982.283 1.395l1.137 1.964c.246.453.647.776 1.137.918a1.89 1.89 0 0 0 1.448-.194l2.687-1.654a32.683 32.683 0 0 1 3.101 13.954c0 5.44-1.602 10.776-4.135 15.712l-2.687-1.447a1.853 1.853 0 0 0-.62-.31 1.866 1.866 0 0 0-1.964.93l-1.137 2.067a1.866 1.866 0 0 0 .723 2.481l6.822 3.928c.401.233.892.31 1.344.207a4.96 4.96 0 0 0 4.445-.93c.22-.156.426-.324.62-.517.065-.04.142-.065.207-.104v-.103l.31-.31v-.104c.194-.193.362-.4.517-.62 3.269-6.163 5.478-13.27 5.478-20.88 0-23.567-19.433-43-43-43ZM43 43a6.612 6.612 0 0 0-6.615 6.615A6.612 6.612 0 0 0 43 56.231c1.822 0 3.45-.763 4.651-1.964 6.021-.465 22.043-1.693 23.154-1.964 1.318-.336 2.274-1.06 2.274-2.377-.336-1.654-1.266-2.585-2.584-2.585-.555 0-16.668-1.666-22.74-2.274C46.553 43.814 44.886 43 43 43ZM32.457 69.462a3.308 3.308 0 0 0-2.688 3.307v3.308a3.314 3.314 0 0 0 3.308 3.308h19.846a3.314 3.314 0 0 0 3.308-3.308v-3.308a3.314 3.314 0 0 0-3.308-3.308H32.457Z" fill="#354D64"/>
  </g>
  <defs>
    <clipPath id="clip0_2001_580">
      <path fill="#fff" d="M0 0h86v86H0z"/>
    </clipPath>
  </defs>
</svg>
