<svg width="86" height="86" fill="none" xmlns="http://www.w3.org/2000/svg">
  <g clip-path="url('#clip0_2001_578')">
    <path d="M42.69-.103a3.874 3.874 0 0 0-.414.103 3.314 3.314 0 0 0-2.584 3.308v3.307H9.923C4.445 6.615 0 11.06 0 16.538v43c0 5.479 4.445 9.924 9.923 9.924h29.77v1.24l-17.986 8.993A3.33 3.33 0 0 0 24.6 85.69l15.091-7.546v1.24a3.328 3.328 0 0 0 1.641 2.908 3.34 3.34 0 0 0 3.334 0 3.328 3.328 0 0 0 1.64-2.907v-1.24L61.4 85.69a3.33 3.33 0 0 0 2.894-5.995l-17.985-8.993v-1.24h29.769c5.478 0 9.923-4.445 9.923-9.924v-43c0-5.478-4.445-9.923-9.923-9.923h-29.77V3.308a3.288 3.288 0 0 0-1.033-2.52 3.307 3.307 0 0 0-2.584-.891ZM6.615 16.539h72.77v43H6.615v-43Zm62.433 3.307a3.333 3.333 0 0 0-1.964.93L56.231 31.63l-7.546-7.546a3.324 3.324 0 0 0-2.817-.969 3.31 3.31 0 0 0-2.455 1.693l-9.82 17.158-4.03-10.13a3.331 3.331 0 0 0-2.43-2.08 3.306 3.306 0 0 0-3.049.944l-9.923 9.923a3.353 3.353 0 0 0 0 4.754 3.353 3.353 0 0 0 4.755 0l6.305-6.305 4.755 11.784a3.318 3.318 0 0 0 2.868 2.132 3.33 3.33 0 0 0 3.127-1.719l11.06-19.33 6.822 6.823a3.303 3.303 0 0 0 2.378 1.008c.891 0 1.757-.362 2.377-1.008l13.23-13.23a3.292 3.292 0 0 0 .712-3.877 3.294 3.294 0 0 0-3.502-1.809Z" fill="#354D64"/>
  </g>
  <defs>
    <clipPath id="clip0_2001_578">
      <path fill="#fff" d="M0 0h86v86H0z"/>
    </clipPath>
  </defs>
</svg>
